<?xml version="1.0" standalone="no"?>
<!DOCTYPE svg PUBLIC "-//W3C//DTD SVG 20010904//EN"
 "http://www.w3.org/TR/2001/REC-SVG-20010904/DTD/svg10.dtd">
<svg version="1.0" xmlns="http://www.w3.org/2000/svg"
 width="1000.000000pt" height="1000.000000pt" viewBox="0 0 1000.000000 1000.000000"
 preserveAspectRatio="xMidYMid meet">

<g transform="translate(0.000000,1000.000000) scale(0.100000,-0.100000)"
fill="#000000" stroke="none">
<path d="M8334 6601 c-18 -11 -35 -24 -38 -30 -4 -6 -15 -11 -25 -11 -10 0
-26 -9 -36 -20 -10 -11 -25 -20 -34 -20 -9 0 -33 -11 -53 -25 -20 -14 -43 -25
-51 -25 -8 0 -22 -9 -32 -20 -10 -11 -24 -20 -32 -20 -7 0 -37 -12 -65 -27
-98 -50 -106 -53 -131 -53 -13 0 -35 -8 -48 -18 -13 -10 -51 -24 -84 -31 -33
-7 -73 -19 -90 -26 -114 -51 -684 -52 -784 -1 -14 7 -69 19 -121 26 -134 18
-282 -4 -405 -61 -22 -10 -60 -23 -85 -29 -24 -7 -53 -18 -64 -26 -11 -8 -30
-14 -41 -14 -12 0 -39 -9 -61 -19 -22 -11 -56 -22 -76 -26 -48 -9 -56 -33 -57
-163 0 -85 -3 -109 -20 -136 -11 -17 -25 -65 -32 -106 -11 -73 -11 -74 14 -96
14 -11 30 -31 36 -42 16 -29 3 -127 -20 -153 -10 -11 -21 -35 -25 -52 -3 -18
-12 -43 -20 -57 -7 -14 -20 -42 -28 -62 -14 -36 -14 -38 5 -38 11 0 34 7 51
16 35 18 78 6 78 -21 0 -9 11 -31 25 -49 14 -18 25 -36 25 -41 0 -11 136 -172
184 -219 163 -156 210 -203 227 -228 30 -42 31 -138 1 -200 -12 -26 -22 -63
-22 -82 0 -19 -4 -37 -9 -40 -5 -3 -15 -30 -21 -58 -45 -192 -202 -340 -442
-417 -37 -11 -77 -21 -88 -21 -12 0 -44 -11 -72 -25 -27 -14 -60 -25 -72 -25
-12 0 -32 -9 -44 -20 -12 -11 -28 -20 -37 -20 -22 0 -116 -47 -168 -83 -38
-27 -52 -21 -147 67 -38 35 -205 146 -220 146 -5 0 -30 11 -56 25 -26 14 -55
25 -64 25 -10 0 -23 6 -29 14 -7 8 -23 17 -37 20 -27 7 -74 95 -74 139 0 14
-9 44 -20 68 -11 24 -20 52 -20 62 0 10 -11 30 -24 44 -13 14 -27 38 -30 53
-3 15 -11 34 -18 41 -7 8 -22 32 -33 53 -11 21 -33 53 -48 70 -16 17 -38 41
-49 53 -25 27 -12 57 35 77 35 14 188 162 225 217 59 88 132 204 132 209 0 4
11 12 26 18 14 7 31 27 39 46 18 42 24 44 100 38 l60 -4 28 42 c15 23 27 46
27 51 0 4 12 23 28 41 15 18 36 49 46 68 20 36 212 230 260 263 14 10 26 24
26 31 0 8 -20 32 -45 54 -25 22 -45 45 -45 50 0 16 -72 152 -81 152 -21 0
-154 -32 -163 -39 -6 -4 -40 -11 -76 -14 -36 -4 -92 -14 -125 -23 -33 -9 -79
-20 -102 -24 -23 -3 -52 -13 -65 -22 -13 -8 -39 -19 -58 -23 -47 -10 -128 -67
-163 -113 -52 -68 -117 -175 -117 -191 0 -9 -9 -34 -19 -56 -10 -22 -21 -59
-25 -83 -3 -24 -14 -55 -23 -68 -9 -14 -19 -42 -24 -62 -9 -44 -50 -144 -68
-166 -7 -8 -15 -30 -18 -48 -2 -18 -11 -40 -19 -49 -8 -8 -14 -22 -14 -30 0
-8 -10 -30 -21 -49 -47 -76 -21 -173 58 -220 42 -25 42 -51 -1 -83 -24 -19
-36 -39 -45 -74 -7 -26 -16 -64 -22 -84 -5 -20 -9 -91 -9 -157 0 -70 -4 -123
-10 -127 -13 -8 -14 -295 -1 -327 10 -25 96 -120 123 -134 9 -5 36 -27 60 -49
23 -22 68 -57 98 -77 30 -20 75 -55 100 -78 25 -22 61 -49 80 -59 19 -11 51
-35 70 -54 19 -19 76 -60 125 -92 50 -32 92 -61 95 -64 8 -10 89 -61 96 -61 3
0 19 -10 36 -21 29 -21 36 -22 267 -16 155 4 260 11 306 22 38 8 91 15 116 15
26 0 66 9 90 19 24 10 64 22 89 26 25 4 57 16 72 26 14 11 34 19 44 19 9 0 36
16 60 35 55 45 74 46 74 1 0 -39 -32 -83 -92 -126 -20 -15 -54 -42 -75 -59
-21 -17 -67 -54 -103 -81 -36 -27 -74 -57 -86 -67 -24 -21 -53 -40 -74 -50 -8
-3 -37 -26 -65 -51 -27 -24 -60 -48 -73 -53 -20 -8 -85 -52 -102 -69 -6 -6
-45 -29 -80 -46 -16 -8 -113 -16 -266 -23 -133 -6 -253 -15 -267 -20 -15 -6
-54 -11 -87 -12 -60 -2 -60 -2 -118 52 -32 30 -75 68 -96 84 -21 17 -61 49
-90 73 -28 24 -64 50 -81 58 -16 8 -57 29 -90 47 -54 29 -68 32 -147 32 -76 0
-89 -3 -110 -22 -14 -13 -29 -23 -35 -23 -14 0 -83 -76 -118 -128 -34 -52 -28
-87 25 -136 22 -20 41 -36 44 -36 8 0 70 -43 96 -68 13 -12 30 -22 37 -22 8 0
16 -7 19 -15 4 -8 13 -15 21 -15 9 0 23 -8 32 -18 9 -9 36 -30 61 -46 25 -16
74 -59 110 -96 83 -85 173 -153 230 -174 59 -21 244 -36 455 -36 94 -1 190 -5
214 -9 31 -6 59 -5 90 4 25 8 69 17 96 21 28 4 72 15 98 25 26 11 57 19 69 19
11 0 35 9 52 19 17 11 49 23 71 27 22 4 56 15 75 25 19 11 44 19 55 19 11 0
34 9 50 20 17 11 40 20 51 20 12 0 33 9 47 20 14 11 39 23 56 26 16 4 38 15
47 25 9 11 25 19 34 19 10 0 29 9 43 20 14 11 32 20 41 20 25 0 32 -31 11 -43
-11 -6 -29 -21 -41 -34 -12 -12 -24 -23 -27 -23 -14 0 -174 -118 -201 -149
-11 -11 -23 -21 -28 -21 -8 0 -68 -47 -134 -105 -7 -5 -36 -30 -65 -55 -29
-25 -73 -66 -97 -92 -32 -33 -56 -49 -89 -58 -26 -6 -55 -18 -67 -26 -11 -7
-33 -14 -48 -14 -15 0 -42 -9 -60 -20 -18 -11 -42 -20 -53 -20 -11 0 -41 -11
-67 -25 -26 -14 -53 -25 -59 -25 -7 0 -20 -6 -28 -14 -21 -18 -154 -63 -211
-71 -25 -3 -67 -12 -95 -20 -27 -7 -83 -19 -124 -25 -41 -6 -79 -14 -85 -19
-6 -5 -37 -14 -68 -20 -31 -7 -62 -19 -68 -27 -7 -7 -18 -14 -24 -14 -6 0 -34
-22 -62 -49 -38 -37 -56 -64 -72 -111 l-21 -63 23 -56 c20 -47 31 -60 72 -83
57 -32 99 -35 199 -12 39 8 120 21 180 29 224 28 351 47 380 57 17 6 57 18 90
27 33 9 74 25 92 34 18 9 43 17 56 17 14 0 30 7 37 15 7 8 17 15 24 15 6 0 40
14 76 31 36 17 85 40 110 51 25 11 62 29 82 39 20 11 43 19 50 19 7 0 24 9 38
20 14 11 30 20 37 20 6 0 41 20 77 45 37 25 69 45 72 45 3 0 20 11 38 25 18
14 37 25 42 25 5 0 24 14 42 31 34 32 99 83 142 110 14 9 37 27 51 41 14 13
47 42 74 63 27 22 62 51 77 64 15 13 39 31 52 40 13 9 35 24 48 34 27 19 58
14 58 -10 0 -16 -19 -55 -30 -63 -4 -3 -28 -36 -54 -75 -53 -81 -129 -182
-181 -241 -47 -55 -105 -131 -105 -139 0 -3 -15 -23 -34 -43 -19 -20 -69 -80
-111 -132 -98 -122 -100 -125 -154 -190 -115 -137 -137 -210 -98 -321 21 -60
72 -136 98 -144 56 -18 89 9 209 175 30 41 61 79 70 84 26 16 140 131 140 141
0 6 16 26 36 44 19 19 43 46 52 60 9 14 25 32 34 39 10 7 18 19 18 27 0 7 3
15 8 17 4 1 32 31 62 66 30 35 114 124 187 198 73 74 145 156 160 182 15 26
35 55 44 65 9 10 30 46 47 82 17 35 36 66 42 70 5 3 10 13 10 22 0 8 8 27 19
41 10 15 22 38 26 52 4 14 16 36 26 49 11 13 19 32 19 42 0 9 4 19 9 21 5 2
33 36 64 76 30 41 85 107 122 148 64 70 78 92 120 184 8 19 31 64 50 100 19
35 35 71 35 78 0 8 9 25 20 39 11 14 20 37 20 50 0 14 9 36 20 50 11 14 20 35
20 47 0 11 12 44 25 71 14 28 25 61 25 74 0 14 7 32 15 41 9 10 20 41 25 71 4
30 16 71 24 91 9 21 16 50 16 65 0 16 8 44 18 63 11 19 22 57 26 85 3 27 15
66 26 87 11 21 20 49 20 61 0 12 9 42 20 66 11 24 20 51 20 60 0 9 9 34 19 55
11 21 23 51 26 66 3 15 15 36 26 46 10 9 19 28 19 41 0 12 4 23 9 23 5 0 17
20 26 45 10 24 26 52 36 61 11 9 19 23 19 31 0 21 96 147 165 216 37 37 125
93 220 140 11 6 27 14 35 19 8 4 34 17 56 27 33 15 45 28 54 58 7 21 18 41 24
45 8 5 11 127 11 411 0 371 -1 405 -17 421 -10 10 -18 24 -18 31 0 55 -25 222
-36 243 -8 15 -14 45 -14 67 0 22 -9 60 -20 84 -11 24 -20 54 -20 67 0 13 -11
48 -25 78 -14 30 -25 61 -25 68 0 7 -9 30 -20 51 -11 20 -20 45 -20 56 0 10
-9 30 -21 44 -11 15 -23 42 -26 61 -3 20 -14 43 -24 52 -11 9 -19 25 -19 35 0
10 -11 30 -25 45 -14 15 -25 33 -25 40 0 26 -85 144 -103 144 -7 0 -26 -9 -43
-19z"/>
</g>
</svg>
