<?xml version="1.0" standalone="no"?>
<!DOCTYPE svg PUBLIC "-//W3C//DTD SVG 20010904//EN"
 "http://www.w3.org/TR/2001/REC-SVG-20010904/DTD/svg10.dtd">
<svg version="1.0" xmlns="http://www.w3.org/2000/svg"
 width="1800.000000pt" height="1080.000000pt" viewBox="0 0 1800.000000 1080.000000"
 preserveAspectRatio="xMidYMid meet">

<g transform="translate(0.000000,1080.000000) scale(0.100000,-0.100000)"
fill="#000000" stroke="none">
<path d="M6974 6968 c-43 -44 -115 -112 -159 -150 -138 -122 -387 -370 -378
-378 4 -4 40 -18 78 -30 39 -13 74 -27 80 -32 5 -4 19 -8 30 -8 33 0 59 -34
51 -67 -3 -15 -11 -95 -16 -178 -5 -82 -12 -168 -16 -191 l-6 -41 43 -5 c24
-3 52 -9 61 -13 16 -6 17 4 12 137 -3 78 -10 167 -15 197 -10 61 -12 121 -3
121 3 0 26 -7 52 -15 44 -15 49 -20 82 -90 19 -41 38 -75 41 -75 4 0 10 16 13
35 15 80 111 233 185 297 101 86 276 131 385 99 152 -45 173 -53 220 -85 21
-14 31 -16 34 -8 2 7 38 -18 84 -60 72 -65 140 -108 171 -108 20 0 -85 99
-180 172 -51 38 -93 73 -93 78 0 4 20 30 44 56 56 63 65 90 34 99 -24 7 -60
22 -168 73 -36 17 -76 33 -90 37 -14 3 -44 15 -67 26 -24 10 -62 28 -85 38
-24 10 -68 31 -99 45 -31 14 -61 26 -68 26 -6 0 -19 4 -29 9 -9 5 -39 19 -67
31 -27 12 -57 26 -66 30 -12 6 -35 -11 -95 -72z"/>
<path d="M11036 6568 c4 -7 15 -24 25 -38 26 -39 33 -94 18 -148 -23 -83 -105
-221 -203 -342 -75 -94 -326 -345 -426 -427 -178 -147 -244 -197 -289 -221
-13 -7 -43 -29 -66 -50 -23 -20 -70 -59 -104 -86 -55 -45 -64 -58 -92 -130
-16 -45 -36 -94 -44 -111 -20 -46 -115 -349 -115 -368 0 -10 -4 -25 -9 -35 -5
-9 -14 -42 -19 -72 -6 -30 -15 -79 -21 -108 -13 -65 -14 -236 -2 -260 5 -9 17
-36 27 -60 21 -52 56 -82 95 -82 16 0 29 1 29 3 0 2 -10 23 -22 48 -11 24 -24
75 -28 113 -5 61 -1 110 26 301 4 22 11 46 17 54 7 8 12 28 13 45 1 17 8 54
17 81 8 28 27 91 42 140 15 50 31 94 36 99 5 6 9 19 9 31 0 12 4 25 9 31 4 5
25 52 45 106 24 63 45 102 60 112 13 8 57 43 98 78 72 60 121 100 245 198 31
25 82 69 113 98 31 28 60 52 64 52 18 0 281 251 372 355 138 157 233 337 234
439 0 57 -42 123 -93 147 -49 22 -71 24 -61 7z"/>
<path d="M7385 6518 c-42 -15 -118 -72 -147 -110 -71 -94 -91 -171 -91 -353
-1 -141 13 -222 58 -345 56 -157 116 -241 175 -248 35 -4 38 8 11 46 -30 43
-57 95 -66 127 -5 17 -9 32 -10 35 -8 23 -18 48 -26 62 -5 10 -9 28 -9 41 0
12 -7 50 -16 82 -22 83 -22 242 1 336 23 95 47 141 110 208 52 55 101 83 170
95 l40 8 -34 14 c-39 16 -123 17 -166 2z"/>
<path d="M10839 6502 c-193 -114 -416 -376 -625 -736 -27 -47 -154 -303 -154
-311 0 -30 163 94 193 148 13 23 55 96 92 162 37 66 97 162 134 214 36 51 71
101 76 110 11 18 86 103 149 170 60 64 185 173 229 199 39 25 45 40 25 60 -20
20 -70 13 -119 -16z"/>
<path d="M8068 6263 c75 -135 99 -276 67 -396 -17 -64 -10 -85 32 -108 20 -11
26 -9 46 9 28 27 53 149 44 220 -8 64 -42 166 -75 227 -23 42 -35 52 -83 71
l-56 21 25 -44z"/>
<path d="M5190 6227 c-19 -13 -53 -33 -75 -44 -79 -41 -130 -66 -150 -73 -11
-4 -38 -15 -60 -23 -111 -43 -157 -51 -330 -51 -136 0 -180 3 -218 17 -29 10
-77 17 -121 17 -63 0 -94 -7 -202 -46 -71 -25 -139 -49 -152 -51 -31 -7 -35
-17 -38 -96 -2 -38 -8 -75 -13 -81 -4 -6 -11 -32 -15 -57 -6 -38 -3 -48 14
-64 17 -15 20 -26 15 -53 -3 -19 -10 -42 -14 -51 -49 -99 -55 -133 -21 -110
29 17 45 8 75 -43 17 -29 81 -103 143 -165 105 -105 112 -115 112 -152 0 -22
-4 -50 -9 -63 -5 -13 -19 -54 -30 -93 -12 -38 -30 -85 -41 -102 -31 -52 -132
-119 -213 -144 -90 -27 -99 -30 -169 -63 -31 -14 -61 -26 -66 -26 -5 0 -15 -7
-22 -15 -19 -23 -47 -18 -87 18 -48 42 -121 87 -198 121 -60 27 -85 56 -85 99
0 32 -76 178 -116 226 l-38 44 25 18 c74 56 115 100 164 175 30 46 61 87 68
91 8 4 16 16 20 26 5 12 18 17 49 17 42 0 44 1 83 66 22 37 75 99 119 141 l79
75 -26 21 c-15 12 -36 43 -47 70 -23 51 -29 53 -95 36 -22 -6 -64 -14 -93 -19
-156 -25 -259 -79 -302 -159 -11 -20 -24 -43 -29 -51 -5 -8 -15 -35 -21 -60
-25 -90 -59 -177 -106 -273 -13 -27 -24 -60 -24 -73 0 -30 27 -74 45 -74 24 0
24 -28 1 -53 -26 -28 -48 -124 -45 -197 1 -25 0 -52 -1 -60 -2 -8 -2 -54 -2
-102 2 -107 -7 -96 250 -291 20 -15 52 -40 71 -55 19 -15 39 -29 45 -32 6 -3
43 -26 83 -53 l72 -47 88 0 c218 0 419 43 491 104 26 23 48 10 38 -22 -6 -17
-168 -152 -242 -202 -12 -8 -53 -37 -91 -64 -97 -70 -116 -76 -239 -76 -59 0
-135 -5 -170 -11 l-62 -11 -79 67 c-159 134 -253 165 -331 109 -43 -31 -84
-90 -80 -113 3 -16 52 -56 180 -146 42 -30 83 -64 92 -76 8 -12 40 -39 71 -60
69 -47 109 -53 345 -53 178 -1 227 7 327 50 17 8 38 14 46 14 9 0 19 5 22 10
3 6 15 10 26 10 10 0 27 4 37 9 117 58 184 91 188 91 2 0 4 -4 4 -10 0 -13
-37 -50 -49 -50 -5 0 -11 -3 -13 -7 -1 -5 -39 -34 -82 -67 -43 -32 -114 -90
-157 -127 -43 -38 -81 -69 -86 -69 -11 0 -140 -49 -198 -75 -65 -29 -103 -41
-200 -60 -161 -32 -207 -50 -248 -94 -52 -56 -53 -121 -3 -163 24 -20 92 -23
159 -9 23 5 89 15 147 21 98 11 181 30 222 51 10 5 22 9 27 9 12 0 154 65 268
122 94 47 272 176 406 293 18 16 47 14 47 -3 0 -9 -142 -204 -168 -231 -7 -8
-31 -37 -53 -65 -21 -28 -77 -98 -124 -156 -47 -58 -91 -122 -97 -142 -13 -46
-1 -98 35 -142 33 -41 64 -31 118 41 23 32 64 78 89 103 26 25 78 83 115 130
37 47 107 126 155 175 93 95 133 152 195 275 40 80 116 189 159 229 31 29 113
194 151 301 14 41 30 83 35 92 10 18 28 82 37 133 3 17 9 35 13 40 4 6 11 29
15 52 4 24 11 45 16 49 5 3 9 13 9 22 0 13 21 77 56 167 2 6 17 33 34 60 16
28 34 59 39 70 25 57 107 137 183 180 44 25 84 45 90 45 5 0 18 19 28 43 17
37 20 66 20 248 0 161 -3 214 -15 242 -8 20 -15 53 -15 73 0 66 -44 218 -112
384 -36 87 -104 200 -122 200 -6 0 -27 -10 -46 -23z"/>
<path d="M13512 5882 c-25 -22 -54 -63 -71 -98 -31 -67 -85 -134 -107 -134
-25 0 -15 -18 14 -24 59 -13 112 -9 132 9 11 10 20 24 20 30 0 7 7 18 15 25
25 21 59 110 71 188 6 37 4 42 -12 42 -11 -1 -38 -18 -62 -38z"/>
<path d="M12926 5728 c4 -7 16 -25 27 -39 14 -19 20 -49 23 -110 l5 -84 -41
-54 c-39 -50 -46 -81 -19 -81 26 0 109 83 134 135 37 79 34 125 -12 176 -43
47 -139 94 -117 57z"/>
<path d="M12794 5659 c-3 -5 -26 -9 -52 -9 -117 0 -386 -123 -517 -237 -64
-54 -147 -156 -163 -198 -39 -104 -6 -146 203 -260 148 -81 236 -150 256 -202
49 -128 -81 -308 -314 -435 -59 -32 -146 -68 -179 -75 -18 -3 -37 -9 -43 -13
-14 -10 -90 -27 -158 -35 -47 -6 -55 -10 -46 -21 15 -19 164 -18 239 0 132 33
306 105 385 160 50 34 155 138 183 181 52 79 65 151 37 204 -17 35 -111 122
-157 145 -18 10 -46 25 -63 35 -16 9 -61 33 -100 54 -38 22 -87 55 -107 75
-35 33 -38 41 -38 89 0 61 7 75 73 158 119 149 359 290 570 336 31 7 57 16 57
20 0 13 -59 38 -66 28z"/>
<path d="M11405 5441 c5 -16 -21 -66 -112 -216 -7 -11 -15 -27 -19 -35 -4 -8
-24 -42 -44 -75 -64 -106 -138 -275 -151 -345 -22 -129 -30 -204 -25 -235 9
-47 44 -85 81 -88 l30 -2 -3 75 c-2 50 4 107 18 174 21 97 25 107 48 153 7 13
12 28 12 34 0 16 50 113 144 277 20 35 36 67 36 71 0 5 9 16 20 26 11 10 20
22 20 26 0 5 14 31 31 59 31 50 31 51 13 71 -18 20 -75 49 -96 49 -5 0 -7 -8
-3 -19z"/>
<path d="M14892 5413 c65 -92 136 -138 130 -83 -3 32 -56 86 -106 111 -58 28
-61 24 -24 -28z"/>
<path d="M16346 5415 c13 -52 -25 -158 -135 -376 -88 -175 -151 -359 -151
-440 0 -44 22 -115 40 -133 20 -18 62 -27 78 -17 10 6 10 14 2 35 -19 51 -7
182 21 238 5 10 9 25 9 33 0 8 4 23 9 33 5 9 13 28 18 42 16 40 103 223 119
250 53 88 94 205 94 268 0 66 -20 92 -71 92 -37 0 -39 -1 -33 -25z"/>
<path d="M13306 5391 c5 -22 -10 -61 -66 -177 -204 -421 -229 -483 -237 -594
-7 -110 8 -152 62 -170 46 -15 67 -1 47 31 -14 21 -14 107 -2 144 4 11 13 38
20 60 28 91 66 180 154 360 122 249 126 258 126 292 0 37 -46 83 -83 83 -24 0
-26 -3 -21 -29z"/>
<path d="M7623 5383 c3 -15 1 -37 -3 -49 -12 -31 -88 -65 -131 -59 -28 5 -27
3 11 -10 25 -8 73 -15 107 -16 70 -2 106 15 125 57 10 20 8 29 -8 50 -15 20
-77 53 -103 54 -2 0 -1 -12 2 -27z"/>
<path d="M15620 5391 c0 -11 -12 -46 -26 -78 -26 -57 -47 -111 -98 -245 -14
-37 -30 -75 -35 -85 -6 -10 -20 -47 -32 -83 -12 -36 -32 -89 -45 -117 -12 -29
-20 -55 -16 -57 7 -4 146 147 189 206 13 17 27 45 32 62 22 72 40 117 105 263
20 45 36 88 36 96 0 22 -31 44 -72 51 -34 6 -38 5 -38 -13z"/>
<path d="M9595 5390 c-38 -7 -122 -37 -175 -63 -54 -26 -208 -123 -265 -166
-68 -52 -209 -191 -234 -230 -9 -15 -35 -51 -58 -81 -23 -30 -60 -92 -83 -138
-40 -78 -42 -87 -38 -152 5 -85 24 -112 77 -108 26 2 35 7 32 18 -8 27 -8 115
-1 125 4 6 13 26 19 45 9 31 76 137 157 254 38 55 268 265 317 291 21 11 82
47 122 72 28 18 121 63 129 63 3 0 25 9 49 20 26 12 68 21 110 22 67 3 89 17
45 30 -30 8 -153 7 -203 -2z"/>
<path d="M14610 5390 c-61 -10 -144 -37 -186 -61 -228 -128 -318 -193 -429
-311 -144 -153 -260 -351 -256 -438 3 -84 36 -128 85 -116 22 5 23 11 23 68
-1 53 5 76 36 140 20 42 52 96 70 120 17 24 48 66 67 93 43 63 169 195 185
195 7 0 20 9 31 21 20 22 139 109 149 109 4 0 25 13 48 28 112 75 241 122 334
122 55 0 74 3 71 12 -8 24 -131 34 -228 18z"/>
<path d="M7100 5323 c-53 -6 -193 -42 -310 -80 -110 -35 -191 -73 -277 -129
-28 -19 -54 -34 -57 -34 -10 0 -161 -118 -187 -146 -182 -200 -204 -419 -57
-561 44 -42 111 -83 137 -83 9 0 -4 20 -31 48 -67 67 -91 126 -90 225 1 170
86 300 299 456 76 55 295 171 323 171 9 0 20 4 26 8 9 8 73 30 104 36 8 2 22
5 30 8 63 23 179 47 270 56 l75 8 -40 12 c-38 11 -137 13 -215 5z"/>
<path d="M10534 5231 c-126 -132 -203 -237 -262 -361 -48 -99 -92 -240 -92
-292 0 -24 34 -87 54 -100 6 -4 23 -8 37 -8 26 0 27 1 25 68 -3 182 146 463
358 672 42 41 76 80 76 87 0 18 -34 33 -72 32 -28 -1 -47 -16 -124 -98z"/>
<path d="M16003 5221 c-118 -96 -485 -491 -618 -667 -70 -92 -137 -161 -186
-189 -41 -24 -48 -68 -12 -73 33 -5 169 65 207 106 38 42 113 134 136 167 39
57 91 124 150 197 36 44 71 90 79 102 8 11 33 41 56 66 23 25 56 64 74 87 17
23 67 70 111 104 76 60 110 105 95 128 -12 21 -43 11 -92 -28z"/>
<path d="M14978 5213 c32 -13 22 -37 -200 -493 -119 -244 -139 -290 -125 -290
33 0 197 145 197 175 0 4 35 80 79 169 43 88 93 193 111 231 17 39 38 82 46
97 26 49 19 65 -41 93 -31 14 -61 25 -68 24 -9 0 -9 -2 1 -6z"/>
<path d="M8576 5148 c-3 -13 -12 -64 -20 -115 -24 -150 -66 -224 -205 -363
-176 -175 -288 -243 -586 -356 -31 -11 -143 -43 -210 -59 -33 -8 -89 -21 -125
-30 -217 -52 -578 -94 -701 -81 -239 25 -294 16 -87 -14 251 -37 667 -4 948
73 30 8 69 18 85 20 17 3 68 18 115 32 47 15 95 29 108 32 12 3 25 9 28 14 3
5 13 9 24 9 10 0 35 9 57 19 21 11 70 35 108 54 158 77 250 147 384 292 56 61
93 111 114 155 16 36 34 73 38 82 5 10 9 46 9 81 0 49 -6 75 -27 117 -31 60
-50 73 -57 38z"/>
<path d="M11921 4997 c-25 -40 -56 -87 -70 -106 -36 -47 -297 -309 -350 -351
-75 -59 -164 -120 -196 -134 -93 -41 -141 -58 -186 -63 -43 -5 -47 -7 -32 -19
22 -17 161 -19 200 -3 15 6 37 15 48 19 119 45 210 115 368 284 108 115 197
221 197 233 0 3 7 15 17 25 9 10 21 27 27 37 6 11 24 41 39 66 27 44 28 47 11
66 -9 10 -20 19 -23 19 -3 -1 -26 -33 -50 -73z"/>
<path d="M9554 4882 c-55 -53 -138 -133 -185 -177 -195 -186 -380 -310 -470
-317 l-44 -3 34 -17 c93 -48 209 -9 396 132 84 63 335 311 335 330 0 9 4 20 8
26 5 5 14 29 21 53 7 23 15 49 18 57 11 30 -16 10 -113 -84z"/>
<path d="M14560 4874 c-41 -42 -119 -115 -174 -162 -54 -48 -113 -100 -130
-115 -122 -110 -284 -207 -347 -207 -39 0 -52 -13 -25 -23 8 -3 41 -9 73 -12
129 -15 267 69 491 298 98 100 129 139 151 189 25 55 43 108 37 108 -1 0 -35
-34 -76 -76z"/>
<path d="M16882 4917 c-18 -18 -32 -37 -32 -43 0 -19 -297 -303 -389 -372
-135 -102 -263 -160 -356 -163 l-30 -1 30 -13 c33 -15 175 -20 191 -7 5 5 29
15 54 22 76 23 189 109 335 255 180 180 275 303 262 339 -10 25 -30 19 -65
-17z"/>
<path d="M12871 4844 c0 -11 3 -14 6 -6 3 7 2 16 -1 19 -3 4 -6 -2 -5 -13z"/>
<path d="M10843 4747 c-59 -85 -344 -337 -383 -337 -9 0 -20 -4 -26 -9 -5 -6
-34 -11 -64 -13 -40 -3 -49 -6 -35 -11 11 -5 28 -13 37 -18 45 -24 158 -7 236
35 44 23 252 235 257 261 10 52 15 125 8 125 -4 0 -18 -15 -30 -33z"/>
<path d="M15064 4629 c-114 -109 -269 -233 -305 -244 -13 -4 -40 -22 -60 -40
-20 -18 -64 -51 -98 -74 -46 -31 -63 -50 -68 -71 -3 -16 -12 -35 -19 -41 -8
-6 -14 -17 -14 -23 0 -6 -7 -24 -16 -41 -9 -16 -58 -113 -110 -215 -92 -183
-145 -283 -216 -410 -78 -139 -242 -319 -359 -394 -45 -28 -151 -66 -188 -66
-34 -1 -35 -2 -17 -15 34 -25 158 -20 238 11 36 14 72 32 78 40 7 8 17 14 22
14 10 0 93 68 129 105 90 93 176 212 239 330 24 44 55 103 70 130 52 97 90
172 170 335 45 91 85 169 91 175 5 5 9 17 9 27 0 10 24 36 53 58 154 119 251
199 317 260 109 100 120 113 140 166 11 31 19 61 17 67 -2 6 -48 -32 -103 -84z"/>
<path d="M13489 4578 c-156 -136 -345 -238 -442 -238 -25 0 -28 -2 -17 -15 9
-11 33 -15 89 -15 98 0 188 30 276 92 22 16 51 36 65 46 13 9 47 38 75 64 46
43 51 51 47 83 -2 19 -8 38 -13 40 -4 3 -40 -23 -80 -57z"/>
<path d="M11966 4472 c-3 -5 -30 -21 -60 -36 -30 -15 -78 -49 -108 -77 l-53
-50 24 -20 c13 -10 36 -19 52 -19 24 0 29 4 29 23 0 13 9 32 20 42 11 10 22
26 25 36 4 10 28 30 56 45 27 15 49 30 49 34 0 14 -28 31 -34 22z"/>
<path d="M6458 4163 c6 -2 18 -2 25 0 6 3 1 5 -13 5 -14 0 -19 -2 -12 -5z"/>
<path d="M10015 4038 c-63 -44 -102 -55 -225 -67 -72 -7 -74 -7 -45 -20 20 -8
66 -11 141 -9 104 3 112 5 144 31 18 16 42 40 53 54 17 21 18 27 6 38 -12 12
-23 8 -74 -27z"/>
<path d="M14195 4033 c-16 -9 -43 -26 -60 -39 -321 -248 -296 -228 -491 -410
-50 -48 -129 -155 -168 -227 -29 -56 -37 -81 -39 -134 -2 -60 0 -66 26 -89 18
-15 40 -24 60 -23 18 0 27 3 20 5 -12 6 -8 103 7 139 4 11 14 36 21 55 15 42
68 119 124 180 44 48 207 204 243 233 206 162 224 180 258 251 19 38 33 70 32
72 -2 1 -16 -5 -33 -13z"/>
</g>
</svg>
